<svg width="107" height="224" viewBox="0 0 107 224" fill="none" xmlns="http://www.w3.org/2000/svg">
<line x1="2.5" y1="3.99998" x2="2.5" y2="223" stroke="white" stroke-width="5"/>
<line y1="2.49998" x2="71" y2="2.49998" stroke="white" stroke-width="5"/>
<path d="M69.6812 2.14948L101.5 33" stroke="white" stroke-width="5"/>
<line x1="100.976" y1="91.0045" x2="100.976" y2="30.9962" stroke="white" stroke-width="5"/>
<path d="M101.5 89.5L85.7215 106.847" stroke="white" stroke-width="5"/>
<path d="M103 118.5L88.2325 105.768" stroke="white" stroke-width="5"/>
<line x1="102.5" y1="116.967" x2="103.5" y2="191.967" stroke="white" stroke-width="5"/>
<line y1="220.5" x2="75" y2="220.5" stroke="white" stroke-width="5"/>
<path d="M72.771 220.873L104.5 190.5" stroke="white" stroke-width="5"/>
<line x1="32.5" y1="33" x2="32.5" y2="91" stroke="white" stroke-width="5"/>
<line x1="30" y1="30.5" x2="60" y2="30.5" stroke="white" stroke-width="5"/>
<path d="M58.5 29.5L74.0002 46.5" stroke="white" stroke-width="5"/>
<line x1="73.5" y1="45" x2="73.5" y2="79" stroke="white" stroke-width="5"/>
<line x1="30" y1="88.5" x2="65" y2="88.5" stroke="white" stroke-width="5"/>
<path d="M63.188 88.8995L74 77.5" stroke="white" stroke-width="5"/>
<line x1="32.5" y1="121" x2="32.5" y2="192" stroke="white" stroke-width="5"/>
<line x1="30" y1="119.5" x2="60" y2="119.5" stroke="white" stroke-width="5"/>
<line x1="30" y1="189.5" x2="60" y2="189.5" stroke="white" stroke-width="5"/>
<line x1="58.3851" y1="190.092" x2="71.3851" y2="179.092" stroke="white" stroke-width="5"/>
<line x1="70.978" y1="181.006" x2="70.978" y2="133.995" stroke="white" stroke-width="5"/>
<path d="M58.5 118.5L71.5 135.5" stroke="white" stroke-width="5"/>
<line x1="17.5" y1="4" x2="17.5" y2="218" stroke="white" stroke-width="25"/>
<line x1="30" y1="16.5" x2="69" y2="16.5" stroke="white" stroke-width="25"/>
<line x1="59.6619" y1="9.57147" x2="87.8616" y2="38.4692" stroke="white" stroke-width="27"/>
<line x1="86.5" y1="29" x2="86.5" y2="91" stroke="white" stroke-width="25"/>
<line x1="30" y1="104.5" x2="85" y2="104.5" stroke="white" stroke-width="27"/>
<line x1="90.8142" y1="80.0071" x2="70.056" y2="103.182" stroke="white" stroke-width="27"/>
<line x1="26" y1="204.5" x2="74" y2="204.5" stroke="white" stroke-width="27"/>
<line x1="86.5" y1="118" x2="86.5" y2="190" stroke="white" stroke-width="29"/>
<line x1="68.8452" y1="109.355" x2="90.2871" y2="129.185" stroke="white" stroke-width="29"/>
<line x1="63.8976" y1="206.713" x2="94.8976" y2="181.713" stroke="white" stroke-width="29"/>
</svg>
